<svg width="64" height="64" viewBox="0 0 64 64" fill="none" xmlns="http://www.w3.org/2000/svg">
<path d="M44.8 44.8C45.9316 44.8 47.0168 45.2495 47.8169 46.0497C48.6171 46.8498 49.0666 47.9351 49.0666 49.0667C49.0666 50.1982 48.6171 51.2835 47.8169 52.0836C47.0168 52.8838 45.9316 53.3333 44.8 53.3333C43.6684 53.3333 42.5831 52.8838 41.783 52.0836C40.9828 51.2835 40.5333 50.1982 40.5333 49.0667C40.5333 46.6987 42.432 44.8 44.8 44.8ZM10.6666 10.6667H17.6426L19.648 14.9333H51.2C51.7658 14.9333 52.3084 15.1581 52.7085 15.5582C53.1085 15.9582 53.3333 16.5009 53.3333 17.0667C53.3333 17.4293 53.2266 17.792 53.0773 18.1333L45.44 31.936C44.7146 33.2373 43.3066 34.1333 41.7066 34.1333H25.8133L23.8933 37.6107L23.8293 37.8667C23.8293 38.0081 23.8855 38.1438 23.9855 38.2438C24.0855 38.3438 24.2212 38.4 24.3626 38.4H49.0666V42.6667H23.4666C22.335 42.6667 21.2498 42.2171 20.4496 41.417C19.6495 40.6168 19.2 39.5316 19.2 38.4C19.2 37.6533 19.392 36.9493 19.712 36.352L22.6133 31.1253L14.9333 14.9333H10.6666V10.6667ZM23.4666 44.8C24.5982 44.8 25.6835 45.2495 26.4836 46.0497C27.2838 46.8498 27.7333 47.9351 27.7333 49.0667C27.7333 50.1982 27.2838 51.2835 26.4836 52.0836C25.6835 52.8838 24.5982 53.3333 23.4666 53.3333C22.335 53.3333 21.2498 52.8838 20.4496 52.0836C19.6495 51.2835 19.2 50.1982 19.2 49.0667C19.2 46.6987 21.0986 44.8 23.4666 44.8ZM42.6666 29.8667L48.5973 19.2H21.632L26.6666 29.8667H42.6666Z" fill="black"/>
</svg>
