<svg width="64" height="64" viewBox="0 0 64 64" fill="none" xmlns="http://www.w3.org/2000/svg">
<path d="M32.335 11C20.6007 11 11 20.6179 11 32.4635C11 43.1739 18.8086 52.0634 29.0067 53.67V38.6755H23.5876V32.4635H29.0067V27.7296C29.0067 22.353 32.1856 19.3969 37.0713 19.3969C39.3968 19.3969 41.829 19.8039 41.829 19.8039V25.0948H39.1408C36.4953 25.0948 35.6632 26.7442 35.6632 28.4364V32.4635H41.5944L40.6343 38.6755H35.6632V53.67C40.6907 52.8728 45.2687 50.2973 48.5707 46.4085C51.8728 42.5197 53.6814 37.5737 53.6699 32.4635C53.6699 20.6179 44.0692 11 32.335 11Z" fill="black"/>
</svg>
