<svg width="64" height="64" viewBox="0 0 64 64" fill="none" xmlns="http://www.w3.org/2000/svg">
<path d="M53.3413 30.4149H33.2445V36.2393H47.5117C46.7884 44.3679 39.8411 47.8455 33.2664 47.8455C24.8727 47.8455 17.509 41.4024 17.509 32.335C17.509 23.5876 24.522 16.8245 33.2883 16.8245C40.0603 16.8245 44.0271 21.0274 44.0271 21.0274L48.1911 16.8031C48.1911 16.8031 42.8436 11 33.0692 11C20.621 11 11 21.2408 11 32.335C11 43.1092 20.0512 53.67 33.3979 53.67C45.1228 53.67 53.67 45.8401 53.67 34.2765C53.67 31.823 53.3413 30.4149 53.3413 30.4149Z" fill="black"/>
</svg>
