<svg width="64" height="64" viewBox="0 0 64 64" fill="none" xmlns="http://www.w3.org/2000/svg">
<path d="M40.7778 42.6667V36.2667H26V27.7333H40.7778V21.3333L51.3334 32L40.7778 42.6667ZM36.5556 10.6667C37.6754 10.6667 38.7493 11.1162 39.5412 11.9163C40.333 12.7165 40.7778 13.8017 40.7778 14.9333V19.2H36.5556V14.9333H17.5556V49.0667H36.5556V44.8H40.7778V49.0667C40.7778 50.1982 40.333 51.2835 39.5412 52.0836C38.7493 52.8838 37.6754 53.3333 36.5556 53.3333H17.5556C16.4358 53.3333 15.3619 52.8838 14.57 52.0836C13.7782 51.2835 13.3334 50.1982 13.3334 49.0667V14.9333C13.3334 13.8017 13.7782 12.7165 14.57 11.9163C15.3619 11.1162 16.4358 10.6667 17.5556 10.6667H36.5556Z" fill="black"/>
</svg>
