<svg width="64" height="64" viewBox="0 0 64 64" fill="none" xmlns="http://www.w3.org/2000/svg">
<path d="M26.8489 11C31.0522 11 35.0835 12.6698 38.0557 15.642C41.0279 18.6143 42.6977 22.6455 42.6977 26.8489C42.6977 30.7745 41.2591 34.3832 38.894 37.1628L39.5523 37.8211H41.4786L53.67 50.0126L50.0126 53.67L37.8211 41.4786V39.5523L37.1628 38.894C34.287 41.3488 30.6299 42.6975 26.8489 42.6977C22.6455 42.6977 18.6143 41.0279 15.642 38.0557C12.6698 35.0835 11 31.0522 11 26.8489C11 22.6455 12.6698 18.6143 15.642 15.642C18.6143 12.6698 22.6455 11 26.8489 11ZM26.8489 15.8766C20.7531 15.8766 15.8766 20.7531 15.8766 26.8489C15.8766 32.9446 20.7531 37.8211 26.8489 37.8211C32.9446 37.8211 37.8211 32.9446 37.8211 26.8489C37.8211 20.7531 32.9446 15.8766 26.8489 15.8766Z" fill="black" fill-opacity="0.96"/>
</svg>
