<svg width="64" height="64" viewBox="0 0 64 64" fill="none" xmlns="http://www.w3.org/2000/svg">
<path d="M45.9118 36.602V11H53.67V36.602H45.9118ZM38.1536 11C39.1824 11 40.1691 11.4496 40.8966 12.2498C41.624 13.05 42.0327 14.1353 42.0327 15.267V36.602C42.0327 37.7754 41.606 38.8422 40.8884 39.6102L28.1262 53.67L26.0703 51.4085C25.5466 50.8324 25.2169 50.043 25.2169 49.147L25.2751 48.4856L27.1176 38.7355H14.8791C13.8503 38.7355 12.8636 38.2859 12.1362 37.4857C11.4087 36.6855 11 35.6002 11 34.4685V30.2015C11 29.6468 11.097 29.1348 11.2715 28.644L17.129 13.6029C17.7108 12.0667 19.0879 11 20.6977 11H38.1536ZM38.1536 15.267H20.6395L14.8791 30.2015V34.4685H31.9083L29.7166 45.8187L38.1536 36.538V15.267Z" fill="black"/>
</svg>
