<svg width="64" height="64" viewBox="0 0 64 64" fill="none" xmlns="http://www.w3.org/2000/svg">
<path d="M18.7582 28.068V53.67H11V28.068H18.7582ZM26.5164 53.67C25.4876 53.67 24.5009 53.2204 23.7734 52.4202C23.046 51.62 22.6373 50.5347 22.6373 49.403V28.068C22.6373 26.8946 23.064 25.8278 23.7816 25.0598L36.5438 11L38.5997 13.2615C39.1234 13.8376 39.4531 14.6269 39.4531 15.5017L39.3949 16.1844L37.5524 25.9345H49.7909C50.8197 25.9345 51.8064 26.3841 52.5338 27.1843C53.2613 27.9845 53.67 29.0698 53.67 30.2015V34.4685C53.67 35.0232 53.573 35.5352 53.3985 36.026L47.541 51.0671C46.9592 52.6032 45.5821 53.67 43.9723 53.67H26.5164ZM26.5164 49.403H44.0305L49.7909 34.4685V30.2015H32.7423L34.934 18.8513L26.5164 28.132V49.403Z" fill="black"/>
</svg>
