<svg width="3840" height="2160" viewBox="0 0 3840 2160" fill="none" xmlns="http://www.w3.org/2000/svg">
<g clip-path="url(#clip0_202_5)">
<rect width="3840" height="2160" fill="white"/>
<rect width="3840" height="2160" fill="#26408B"/>
<path opacity="0.15" d="M1621.15 2757.21L2804.4 1573.97L811.989 764.8L1621.15 2757.21V2757.21ZM1558.43 -76.3732L3618.21 760.155L2394.96 1983.41L1558.43 -76.3732Z" fill="white"/>
<path opacity="0.15" d="M1794.15 2757.21L2977.4 1573.97L984.989 764.8L1794.15 2757.21V2757.21ZM1731.43 -76.3732L3791.21 760.155L2567.96 1983.41L1731.43 -76.3732Z" fill="white"/>
<path opacity="0.15" d="M1967.15 2757.21L3150.4 1573.97L1157.99 764.8L1967.15 2757.21V2757.21ZM1904.43 -76.3732L3964.21 760.155L2740.96 1983.41L1904.43 -76.3732Z" fill="white"/>
<path opacity="0.15" d="M2140.15 2757.21L3323.4 1573.97L1330.99 764.8L2140.15 2757.21V2757.21ZM2077.43 -76.3732L4137.21 760.155L2913.96 1983.41L2077.43 -76.3732Z" fill="white"/>
<path opacity="0.15" d="M2313.15 2757.21L3496.4 1573.97L1503.99 764.8L2313.15 2757.21V2757.21ZM2250.43 -76.3732L4310.21 760.155L3086.96 1983.41L2250.43 -76.3732Z" fill="white"/>
<path opacity="0.15" d="M2486.15 2757.21L3669.4 1573.97L1676.99 764.8L2486.15 2757.21V2757.21ZM2423.43 -76.3732L4483.21 760.155L3259.96 1983.41L2423.43 -76.3732Z" fill="white"/>
<path opacity="0.15" d="M2659.15 2757.21L3842.4 1573.97L1849.99 764.8L2659.15 2757.21V2757.21ZM2596.43 -76.3732L4656.21 760.155L3432.96 1983.41L2596.43 -76.3732Z" fill="white"/>
<path opacity="0.15" d="M2832.15 2757.21L4015.4 1573.97L2022.99 764.8L2832.15 2757.21V2757.21ZM2769.43 -76.3732L4829.21 760.155L3605.96 1983.41L2769.43 -76.3732Z" fill="white"/>
<path opacity="0.15" d="M3005.15 2757.21L4188.4 1573.97L2195.99 764.8L3005.15 2757.21V2757.21ZM2942.43 -76.3732L5002.21 760.155L3778.96 1983.41L2942.43 -76.3732Z" fill="white"/>
<path opacity="0.15" d="M3178.15 2757.21L4361.4 1573.97L2368.99 764.8L3178.15 2757.21V2757.21ZM3115.43 -76.3732L5175.21 760.155L3951.96 1983.41L3115.43 -76.3732Z" fill="white"/>
<path opacity="0.15" d="M3351.15 2757.21L4534.4 1573.97L2541.99 764.8L3351.15 2757.21V2757.21ZM3288.43 -76.3732L5348.21 760.155L4124.96 1983.41L3288.43 -76.3732Z" fill="white"/>
<path opacity="0.15" d="M3524.15 2757.21L4707.4 1573.97L2714.99 764.8L3524.15 2757.21V2757.21ZM3461.43 -76.3732L5521.21 760.155L4297.96 1983.41L3461.43 -76.3732Z" fill="white"/>
<path opacity="0.15" d="M3697.15 2757.21L4880.4 1573.97L2887.99 764.8L3697.15 2757.21V2757.21ZM3634.43 -76.3732L5694.21 760.155L4470.96 1983.41L3634.43 -76.3732Z" fill="white"/>
<path opacity="0.15" d="M3870.15 2757.21L5053.4 1573.97L3060.99 764.8L3870.15 2757.21V2757.21ZM3807.43 -76.3732L5867.21 760.155L4643.96 1983.41L3807.43 -76.3732Z" fill="white"/>
<path opacity="0.15" d="M4043.15 2757.21L5226.4 1573.97L3233.99 764.8L4043.15 2757.21V2757.21ZM3980.43 -76.3732L6040.21 760.155L4816.96 1983.41L3980.43 -76.3732Z" fill="white"/>
<path opacity="0.15" d="M4216.15 2757.21L5399.4 1573.97L3406.99 764.8L4216.15 2757.21V2757.21ZM4153.43 -76.3732L6213.21 760.155L4989.96 1983.41L4153.43 -76.3732Z" fill="white"/>
<path opacity="0.15" d="M4389.15 2757.21L5572.4 1573.97L3579.99 764.8L4389.15 2757.21V2757.21ZM4326.43 -76.3732L6386.21 760.155L5162.96 1983.41L4326.43 -76.3732Z" fill="white"/>
<path opacity="0.15" d="M4562.15 2757.21L5745.4 1573.97L3752.99 764.8L4562.15 2757.21V2757.21ZM4499.43 -76.3732L6559.21 760.155L5335.96 1983.41L4499.43 -76.3732Z" fill="white"/>
<path opacity="0.15" d="M4735.15 2757.21L5918.4 1573.97L3925.99 764.8L4735.15 2757.21V2757.21ZM4672.43 -76.3732L6732.21 760.155L5508.96 1983.41L4672.43 -76.3732Z" fill="white"/>
<path opacity="0.15" d="M1275.15 2757.21L2458.4 1573.97L465.989 764.8L1275.15 2757.21V2757.21ZM1212.43 -76.3732L3272.21 760.155L2048.96 1983.41L1212.43 -76.3732Z" fill="white"/>
<path opacity="0.15" d="M1102.15 2757.21L2285.4 1573.97L292.989 764.8L1102.15 2757.21V2757.21ZM1039.43 -76.3732L3099.21 760.155L1875.96 1983.41L1039.43 -76.3732Z" fill="white"/>
<path opacity="0.15" d="M929.155 2757.21L2112.4 1573.97L119.989 764.8L929.155 2757.21V2757.21ZM866.432 -76.3732L2926.21 760.155L1702.96 1983.41L866.432 -76.3732Z" fill="white"/>
<path opacity="0.15" d="M756.155 2757.21L1939.4 1573.97L-53.0108 764.8L756.155 2757.21V2757.21ZM693.432 -76.3732L2753.21 760.155L1529.96 1983.41L693.432 -76.3732Z" fill="white"/>
<path opacity="0.15" d="M583.155 2757.21L1766.4 1573.97L-226.011 764.8L583.155 2757.21V2757.21ZM520.432 -76.3732L2580.21 760.155L1356.96 1983.41L520.432 -76.3732Z" fill="white"/>
<path opacity="0.15" d="M410.155 2757.21L1593.4 1573.97L-399.011 764.8L410.155 2757.21V2757.21ZM347.432 -76.3732L2407.21 760.155L1183.96 1983.41L347.432 -76.3732Z" fill="white"/>
<path opacity="0.15" d="M237.155 2757.21L1420.4 1573.97L-572.011 764.8L237.155 2757.21V2757.21ZM174.432 -76.3732L2234.21 760.155L1010.96 1983.41L174.432 -76.3732Z" fill="white"/>
<path opacity="0.15" d="M64.1547 2757.21L1247.4 1573.97L-745.011 764.8L64.1547 2757.21V2757.21ZM1.4315 -76.3732L2061.21 760.155L837.959 1983.41L1.4315 -76.3732Z" fill="white"/>
<path opacity="0.15" d="M-108.845 2757.21L1074.4 1573.97L-918.011 764.8L-108.845 2757.21V2757.21ZM-171.568 -76.3732L1888.21 760.155L664.959 1983.41L-171.568 -76.3732Z" fill="white"/>
<path opacity="0.15" d="M-281.845 2757.21L901.395 1573.97L-1091.01 764.8L-281.845 2757.21V2757.21ZM-344.568 -76.3732L1715.21 760.155L491.959 1983.41L-344.568 -76.3732Z" fill="white"/>
<path opacity="0.15" d="M-454.845 2757.21L728.395 1573.97L-1264.01 764.8L-454.845 2757.21V2757.21ZM-517.568 -76.3732L1542.21 760.155L318.959 1983.41L-517.568 -76.3732Z" fill="white"/>
<path opacity="0.15" d="M-627.845 2757.21L555.395 1573.97L-1437.01 764.8L-627.845 2757.21V2757.21ZM-690.568 -76.3732L1369.21 760.155L145.959 1983.41L-690.568 -76.3732Z" fill="white"/>
<path opacity="0.15" d="M-800.845 2757.21L382.395 1573.97L-1610.01 764.8L-800.845 2757.21V2757.21ZM-863.568 -76.3732L1196.21 760.155L-27.0405 1983.41L-863.568 -76.3732Z" fill="white"/>
<path opacity="0.15" d="M-973.845 2757.21L209.395 1573.97L-1783.01 764.8L-973.845 2757.21V2757.21ZM-1036.57 -76.3732L1023.21 760.155L-200.041 1983.41L-1036.57 -76.3732Z" fill="white"/>
<path opacity="0.15" d="M-1146.85 2757.21L36.3954 1573.97L-1956.01 764.8L-1146.85 2757.21V2757.21ZM-1209.57 -76.3732L850.213 760.155L-373.041 1983.41L-1209.57 -76.3732Z" fill="white"/>
<path opacity="0.15" d="M-1319.85 2757.21L-136.605 1573.97L-2129.01 764.8L-1319.85 2757.21V2757.21ZM-1382.57 -76.3732L677.213 760.155L-546.041 1983.41L-1382.57 -76.3732Z" fill="white"/>
<path opacity="0.15" d="M-1492.85 2757.21L-309.605 1573.97L-2302.01 764.8L-1492.85 2757.21V2757.21ZM-1555.57 -76.3732L504.213 760.155L-719.041 1983.41L-1555.57 -76.3732Z" fill="white"/>
<path opacity="0.15" d="M-1665.85 2757.21L-482.605 1573.97L-2475.01 764.8L-1665.85 2757.21V2757.21ZM-1728.57 -76.3732L331.213 760.155L-892.041 1983.41L-1728.57 -76.3732Z" fill="white"/>
<path opacity="0.15" d="M-1838.85 2757.21L-655.605 1573.97L-2648.01 764.8L-1838.85 2757.21V2757.21ZM-1901.57 -76.3732L158.213 760.155L-1065.04 1983.41L-1901.57 -76.3732Z" fill="white"/>
<path opacity="0.15" d="M1448.15 2757.21L2631.4 1573.97L638.989 764.8L1448.15 2757.21V2757.21ZM1385.43 -76.3732L3445.21 760.155L2221.96 1983.41L1385.43 -76.3732Z" fill="white"/>
</g>
<defs>
<clipPath id="clip0_202_5">
<rect width="3840" height="2160" fill="white"/>
</clipPath>
</defs>
</svg>
